<?xml version="1.0" encoding="utf-8"?>
<!-- Generator: Adobe Illustrator 24.0.1, SVG Export Plug-In . SVG Version: 6.00 Build 0)  -->
<svg version="1.1" xmlns="http://www.w3.org/2000/svg" xmlns:xlink="http://www.w3.org/1999/xlink" x="0px" y="0px"
	 viewBox="0 0 595.3 190" style="enable-background:new 0 0 595.3 190;" xml:space="preserve">
<style type="text/css">
	.st0{fill:#595A5C;}
	.st1{fill:#00AE4D;}
	.st2{fill:#D80B8C;}
	.st3{fill:#2E3192;}
</style>
<g id="Layer_1">
	<polygon class="st0" points="90.9,136.6 117.9,136.6 117.9,70.1 155.5,70.1 155.5,47.3 53.3,47.3 53.3,70.1 90.9,70.1 	"/>
	<polygon class="st0" points="186.1,69.8 190.7,69.8 222.5,136.6 243.9,136.6 275.6,69.8 280,69.8 280,136.6 304.6,136.6 
		304.6,47.3 258.3,47.3 233.1,105.3 208,47.3 161.4,47.3 161.4,136.6 186.7,136.6 	"/>
	<rect x="53.3" y="142.5" class="st1" width="102.2" height="3.7"/>
	<rect x="161.4" y="142.5" class="st2" width="143.2" height="3.7"/>
	<g>
		<path class="st3" d="M387.6,70.3c-0.9-0.2-1.9-0.3-3.2-0.4c-3.6,5-5.4,11.1-3.6,18.1C380,81.2,383,75.2,387.6,70.3z"/>
		<path class="st3" d="M442,137.7c-3.2-3.7-3.1-8.1-0.6-15.7c0.4-1.1,4.9-13.5,9.1-25.2l58.3-44.6c1.3-1,2.4-0.9,3.3-1
			c3-0.1,29.8-0.7,29.8-0.7s-28.9-0.6-33.1-0.7c-2.1,0-3.6,0.2-5.3,1.4l-49.1,34.9c2-5.4,3.5-9.5,3.9-10.5
			c3.8-10.4,4.1-16.7-2.4-22.4c-5.6-4.9-14.3-6.3-20.3-6.2c-7.2,0.1-14.9,0.8-24.2,4.5c-0.2,0.1-0.4,0.2-0.7,0.3
			c1.3,0.8,2.4,1.6,3.4,2.6c1.5-0.5,2.6-0.9,3.1-1c3.7-0.9,7.5-1.9,12.9-2s11.5,1.4,14.1,3.7c4.4,3.9,4.4,7.7,1.6,16.2l-9.8,26.9
			l-55.3,42.2c-3.1,2.2-3.2,2.1-8,2.1h-61.8v3.7h61.5c4.8,0,6.9,0.1,9.5-1.8l50.2-35.6l-3.3,9l0,0c-3.7,10.2-2.9,18.2,3.6,23.9
			c5.6,4.9,14.8,4.7,24.4,4.5c7.6-0.2,85.1-1.9,85.1-1.9s-75.8-1.7-84.9-1.9C448.4,142.3,444.7,140.7,442,137.7z"/>
	</g>
	<g>
		<path class="st0" d="M393.8,136.1c11.3-0.8,16.1-2.8,20.5-6.9c3-2.9,4.9-6.5,6.2-11.9L393.8,136.1z"/>
		<path class="st0" d="M386,136.5l35.7-27.3c0.5-4.9,0.7-11,0.7-18.5c0-14.5-0.5-20.2-2.4-26.5c-2.5-8.3-8.1-13.4-16.5-15.1
			c-7.2-1.6-10.1-1.7-31.7-1.7h-60.9v89.3h60.9C377.3,136.6,381.9,136.6,386,136.5z M336.3,69.7h35.6c15.7,0,19.1,0.5,21.8,3.8
			c2.5,2.9,3.4,7.9,3.4,18.9c0,20.2-1.6,21.6-24.9,21.6h-35.8V69.7z"/>
	</g>
</g>
<g id="Layer_2">
</g>
<g id="Layer_3">
</g>
</svg>
